<svg width="30" height="30" viewBox="0 0 30 30" fill="none" xmlns="http://www.w3.org/2000/svg">
<path d="M14.9999 10.0534C12.2761 10.0534 10.0533 12.2763 10.0533 15.0001C10.0533 17.7239 12.2761 19.9468 14.9999 19.9468C17.7238 19.9468 19.9466 17.7239 19.9466 15.0001C19.9466 12.2763 17.7238 10.0534 14.9999 10.0534ZM29.8363 15.0001C29.8363 12.9517 29.8548 10.9218 29.7398 8.87706C29.6247 6.50206 29.0829 4.39424 27.3462 2.65752C25.6058 0.917095 23.5017 0.379009 21.1267 0.26397C19.0783 0.148931 17.0484 0.167486 15.0036 0.167486C12.9552 0.167486 10.9253 0.148931 8.8806 0.26397C6.5056 0.379009 4.39778 0.920806 2.66106 2.65752C0.920635 4.39795 0.382549 6.50206 0.26751 8.87706C0.152471 10.9255 0.171026 12.9554 0.171026 15.0001C0.171026 17.0448 0.152471 19.0784 0.26751 21.1231C0.382549 23.4981 0.924346 25.606 2.66106 27.3427C4.40149 29.0831 6.5056 29.6212 8.8806 29.7362C10.929 29.8513 12.9589 29.8327 15.0036 29.8327C17.0521 29.8327 19.082 29.8513 21.1267 29.7362C23.5017 29.6212 25.6095 29.0794 27.3462 27.3427C29.0867 25.6022 29.6247 23.4981 29.7398 21.1231C29.8585 19.0784 29.8363 17.0485 29.8363 15.0001ZM14.9999 22.6112C10.788 22.6112 7.3888 19.212 7.3888 15.0001C7.3888 10.7882 10.788 7.38897 14.9999 7.38897C19.2118 7.38897 22.6111 10.7882 22.6111 15.0001C22.6111 19.212 19.2118 22.6112 14.9999 22.6112ZM22.9228 8.85479C21.9394 8.85479 21.1452 8.06065 21.1452 7.07725C21.1452 6.09385 21.9394 5.29971 22.9228 5.29971C23.9062 5.29971 24.7003 6.09385 24.7003 7.07725C24.7006 7.31076 24.6548 7.54204 24.5656 7.75783C24.4764 7.97363 24.3455 8.1697 24.1803 8.33482C24.0152 8.49993 23.8192 8.63085 23.6034 8.72008C23.3876 8.80931 23.1563 8.85508 22.9228 8.85479Z" fill="#656D78"/>
</svg>
