<svg width="24" height="24" viewBox="0 0 24 24" fill="none" xmlns="http://www.w3.org/2000/svg">
<path d="M16.129 11.6965L16.129 11.6965L16.1245 11.6991L8.1714 16.2107C8.07668 16.2644 7.96791 16.2614 7.87699 16.2117C7.78969 16.1641 7.75 16.0932 7.75 16.0115V6.98784C7.75 6.90656 7.78959 6.83568 7.87667 6.7881C7.967 6.73873 8.07554 6.73541 8.17102 6.78959L8.17111 6.78964L16.1245 11.3015L16.1245 11.3015L16.129 11.304C16.1685 11.326 16.1992 11.3567 16.2196 11.3911L16.8645 11.0082L16.2196 11.3911C16.24 11.4254 16.25 11.463 16.25 11.5003C16.25 11.5375 16.24 11.5751 16.2196 11.6094C16.1992 11.6439 16.1685 11.6745 16.129 11.6965Z" stroke="#1F5F5B" stroke-width="1.5"/>
</svg>
