<svg width="32" height="26" viewBox="0 0 32 26" fill="none" xmlns="http://www.w3.org/2000/svg">
<path d="M31.4373 3.43672C30.3017 3.92656 29.066 4.2791 27.7932 4.4164C29.1147 3.6313 30.1043 2.39097 30.5764 0.928122C29.3363 1.66582 27.9778 2.1831 26.5611 2.45703C25.969 1.82404 25.2529 1.31977 24.4574 0.97565C23.6619 0.631526 22.804 0.454918 21.9373 0.456833C18.4305 0.456833 15.6102 3.29941 15.6102 6.78769C15.6102 7.27754 15.6695 7.76738 15.766 8.23867C10.515 7.96406 5.83183 5.45547 2.71836 1.61465C2.15105 2.58363 1.85376 3.68693 1.85742 4.80976C1.85742 7.00664 2.97441 8.94375 4.67773 10.083C3.67394 10.0435 2.69365 9.76757 1.8166 9.27773V9.35566C1.8166 12.432 3.99121 14.9814 6.88945 15.5678C6.34527 15.7091 5.78547 15.7814 5.22324 15.783C4.81133 15.783 4.42168 15.7422 4.02832 15.6865C4.82988 18.1951 7.16406 20.0172 9.94355 20.0766C7.76894 21.7799 5.04512 22.7818 2.0875 22.7818C1.55684 22.7818 1.06699 22.7633 0.558594 22.7039C3.36406 24.5037 6.69277 25.5428 10.2775 25.5428C21.915 25.5428 28.283 15.9018 28.283 7.53359C28.283 7.25898 28.283 6.98437 28.2644 6.70976C29.4965 5.808 30.5764 4.69101 31.4373 3.43672Z" fill="#656D78"/>
</svg>
