<svg width="32" height="26" viewBox="0 0 32 26" fill="none" xmlns="http://www.w3.org/2000/svg">
<path d="M31.4373 3.43675C30.3017 3.92659 29.066 4.27913 27.7932 4.41643C29.1147 3.63133 30.1043 2.391 30.5764 0.928152C29.3363 1.66585 27.9778 2.18313 26.5611 2.45706C25.969 1.82407 25.2529 1.3198 24.4574 0.97568C23.6619 0.631556 22.804 0.454949 21.9373 0.456864C18.4305 0.456864 15.6102 3.29944 15.6102 6.78772C15.6102 7.27757 15.6695 7.76741 15.766 8.2387C10.515 7.96409 5.83183 5.4555 2.71836 1.61468C2.15105 2.58366 1.85376 3.68696 1.85742 4.80979C1.85742 7.00667 2.97441 8.94378 4.67773 10.083C3.67394 10.0435 2.69365 9.7676 1.8166 9.27776V9.35569C1.8166 12.4321 3.99121 14.9815 6.88945 15.5678C6.34527 15.7092 5.78547 15.7815 5.22324 15.783C4.81133 15.783 4.42168 15.7422 4.02832 15.6866C4.82988 18.1951 7.16406 20.0172 9.94355 20.0766C7.76894 21.7799 5.04512 22.7819 2.0875 22.7819C1.55684 22.7819 1.06699 22.7633 0.558594 22.7039C3.36406 24.5037 6.69277 25.5428 10.2775 25.5428C21.915 25.5428 28.283 15.9018 28.283 7.53362C28.283 7.25901 28.283 6.9844 28.2644 6.70979C29.4965 5.80803 30.5764 4.69104 31.4373 3.43675Z" fill="white"/>
</svg>
