<svg width="8" height="14" viewBox="0 0 8 14" fill="none" xmlns="http://www.w3.org/2000/svg">
<path fill-rule="evenodd" clip-rule="evenodd" d="M7.70698 6.293C7.89445 6.48053 7.99976 6.73483 7.99976 7C7.99976 7.26516 7.89445 7.51947 7.70698 7.707L2.04998 13.364C1.95773 13.4595 1.84739 13.5357 1.72538 13.5881C1.60338 13.6405 1.47216 13.6681 1.33938 13.6692C1.2066 13.6704 1.07492 13.6451 0.952023 13.5948C0.829127 13.5445 0.717474 13.4703 0.623581 13.3764C0.529689 13.2825 0.455436 13.1708 0.405155 13.048C0.354874 12.9251 0.329572 12.7934 0.330726 12.6606C0.33188 12.5278 0.359466 12.3966 0.411875 12.2746C0.464284 12.1526 0.540466 12.0422 0.635976 11.95L5.58598 7L0.635976 2.05C0.453818 1.8614 0.353024 1.60879 0.355302 1.3466C0.357581 1.0844 0.46275 0.833587 0.648158 0.648179C0.833566 0.462771 1.08438 0.357602 1.34658 0.355323C1.60877 0.353045 1.86137 0.453839 2.04998 0.635997L7.70698 6.293Z" fill="#1F5F5B"/>
</svg>
